<svg width="256" height="256" viewBox="0 0 256 256" fill="none" xmlns="http://www.w3.org/2000/svg">
<path d="M195.8 56.216C186.838 56.1958 178.079 59.0482 170.669 64.4C164.476 45.512 147.707 32 128 32C118.601 32.0154 109.44 35.1421 101.792 40.9449C94.1446 46.7478 88.3906 54.9381 85.3312 64.376C78.1444 59.216 69.5112 56.216 60.2 56.216C35.227 56.216 15 77.888 15 104.624C15 135.08 33.8032 155.96 60.2 155.96V176C60.2 198.632 60.2 209.936 66.8218 216.968C73.4436 224 84.0882 224 105.4 224H150.6C171.912 224 182.556 224 189.178 216.968C195.8 209.936 195.8 198.632 195.8 176V152.96C220.57 152.96 241 130.952 241 104.624C241 77.888 220.773 56.216 195.8 56.216Z" fill="white"/>
<path d="M170.669 64.4C178.079 59.0482 186.838 56.1958 195.8 56.216C220.773 56.216 241 77.888 241 104.624C241 130.952 220.57 152.96 195.8 152.96V176C195.8 198.632 195.8 209.936 189.178 216.968C182.556 224 171.912 224 150.6 224H105.4C84.0882 224 73.4436 224 66.8218 216.968C60.2 209.936 60.2 198.632 60.2 176V155.96C33.8032 155.96 15 135.08 15 104.624C15 77.888 35.227 56.216 60.2 56.216C69.5112 56.216 78.1444 59.216 85.3312 64.376C88.3906 54.9381 94.1446 46.7478 101.792 40.9449C109.44 35.1421 118.601 32.0154 128 32C147.707 32 164.476 45.512 170.669 64.4ZM170.669 64.4C172.326 69.424 173.17 74.768 173.2 80.432" stroke="#4338CA" stroke-width="24" stroke-linecap="round" stroke-linejoin="round"/>
</svg>
